<?xml version="1.0" standalone="no"?>
<!DOCTYPE svg PUBLIC "-//W3C//DTD SVG 20010904//EN"
 "http://www.w3.org/TR/2001/REC-SVG-20010904/DTD/svg10.dtd">
<svg version="1.0" xmlns="http://www.w3.org/2000/svg"
 width="615.000000pt" height="615.000000pt" viewBox="0 0 615.000000 615.000000"
 preserveAspectRatio="xMidYMid meet">
<metadata>
Created by potrace 1.16, written by Peter Selinger 2001-2019
</metadata>
<g transform="translate(0.000000,615.000000) scale(0.100000,-0.100000)"
fill="#000000" stroke="none">
<path d="M3012 4364 c-18 -9 -43 -31 -55 -48 -22 -31 -22 -35 -25 -453 -1
-233 -6 -423 -10 -423 -4 0 -50 43 -102 96 -108 109 -132 124 -193 124 -107 0
-178 -116 -132 -214 8 -17 127 -143 263 -278 345 -344 299 -344 645 0 137 136
255 259 263 274 8 15 14 46 14 70 0 106 -106 176 -206 137 -16 -5 -76 -58
-136 -116 l-107 -106 -3 426 c-3 412 -4 426 -24 453 -49 67 -128 90 -192 58z"/>
<path d="M2170 3447 c-121 -50 -205 -133 -235 -231 -22 -74 -22 -1098 0 -1172
31 -101 118 -182 250 -235 l60 -24 807 -3 c715 -2 815 -1 870 13 133 35 228
107 280 213 l33 67 0 560 0 560 -24 48 c-39 78 -104 143 -184 182 -40 19 -84
37 -99 41 -24 5 -28 3 -28 -15 0 -50 -43 -134 -102 -197 l-60 -64 43 0 c51 -1
112 -21 140 -46 18 -16 19 -35 19 -515 l0 -498 -26 -20 c-51 -40 -95 -42 -869
-39 l-740 3 -45 25 -45 25 -3 498 -2 498 24 24 c27 27 83 45 145 45 l43 0 -51
56 c-58 64 -85 110 -102 178 -13 54 -20 55 -99 23z"/>
</g>
</svg>
